<svg xmlns="http://www.w3.org/2000/svg" width="1200" height="760" viewBox="0 0 1200 760">
  <rect width="1200" height="760" fill="#101018"/>
  <rect x="32" y="32" width="1136" height="696" rx="18" fill="#181724" stroke="#7c3cff" stroke-width="3"/>
  <text x="70" y="105" fill="#ff8a1f" font-family="Arial, sans-serif" font-size="34" font-weight="800">MOSSA CLASS SCHEDULE</text>
  <text x="70" y="145" fill="#ffffff" font-family="Arial, sans-serif" font-size="24">Monthly schedule image placeholder</text>
  <g font-family="Arial, sans-serif" font-size="22" font-weight="700">
    <rect x="70" y="190" width="1060" height="70" fill="#7c3cff"/>
    <text x="95" y="235" fill="#ffffff">MON</text>
    <text x="245" y="235" fill="#ffffff">TUE</text>
    <text x="395" y="235" fill="#ffffff">WED</text>
    <text x="545" y="235" fill="#ffffff">THU</text>
    <text x="695" y="235" fill="#ffffff">FRI</text>
    <text x="845" y="235" fill="#ffffff">SAT</text>
    <text x="995" y="235" fill="#ffffff">SUN</text>
  </g>
  <g fill="#242236" stroke="#383348" stroke-width="2">
    <rect x="70" y="260" width="150" height="360"/>
    <rect x="220" y="260" width="150" height="360"/>
    <rect x="370" y="260" width="150" height="360"/>
    <rect x="520" y="260" width="150" height="360"/>
    <rect x="670" y="260" width="150" height="360"/>
    <rect x="820" y="260" width="150" height="360"/>
    <rect x="970" y="260" width="160" height="360"/>
  </g>
  <g fill="#ffffff" font-family="Arial, sans-serif" font-size="20">
    <text x="92" y="315">18:00</text><text x="92" y="345" fill="#ffb15c">CLASS</text>
    <text x="242" y="380">18:30</text><text x="242" y="410" fill="#ffb15c">CLASS</text>
    <text x="392" y="315">19:00</text><text x="392" y="345" fill="#ffb15c">CLASS</text>
    <text x="542" y="450">18:30</text><text x="542" y="480" fill="#ffb15c">CLASS</text>
    <text x="692" y="315">18:00</text><text x="692" y="345" fill="#ffb15c">CLASS</text>
    <text x="842" y="380">10:00</text><text x="842" y="410" fill="#ffb15c">CLASS</text>
    <text x="992" y="450">REST</text>
  </g>
  <text x="70" y="675" fill="#b8b2c5" font-family="Arial, sans-serif" font-size="22">Replace this SVG with the real monthly class schedule image.</text>
</svg>
